#!OML:ASF H:\charlestonDancing\Project 1\Capture day 1\Session 1\femaleDancer.ASF
:FULLY-SPECIFIED
:DEGREES
495
root -2.03732 17.4163 5.20464 893.084 -65.6752 -886.875
lowerback 22.5682 -2.42544 3.05205
upperback 4.29846 -2.86767 -0.254008
thorax -8.01836 -1.61466 -1.1675
lowerneck 9.36113 7.70192 9.66789
upperneck -38.5249 7.44398 -12.249
head -13.5179 2.61489 -7.49175
rclavicle 9.54166e-015 -1.74931e-014
rhumerus -41.8201 -17.4406 -54.6392
rradius 93.91
rwrist -45.8662
rhand -3.75171 -31.0738
rfingers 7.12502
rthumb 21.9924 -59.8435
lclavicle 9.54166e-015 -1.74931e-014
lhumerus -68.6587 34.4163 36.9165
lradius 10.4766
lwrist -54.6003
lhand -3.40156 8.04371
lfingers 7.12502
lthumb 22.3285 36.7735
rfemur -26.9574 17.0352 26.1034
rtibia 38.9898
rfoot -17.736 14.666
rtoes -1.97642
lfemur -30.8608 2.52769 -14.4978
ltibia 55.1212
lfoot -24.4547 3.85438
ltoes -20.207
496
root -2.01817 17.3927 5.24474 893.489 -65.1127 -886.772
lowerback 22.525 -2.28258 2.88352
upperback 4.32987 -2.73733 -0.376729
thorax -7.95413 -1.55036 -1.24583
lowerneck 9.6118 7.72447 9.57136
upperneck -38.4638 7.58413 -12.0862
head -13.5439 2.68671 -7.43535
rclavicle -3.49861e-014 1.59028e-015
rhumerus -41.4925 -17.6334 -54.6522
rradius 93.8955
rwrist -46.06
rhand -4.00591 -31.1649
rfingers 7.12502
rthumb 21.7483 -59.9631
lclavicle -3.49861e-014 1.59028e-015
lhumerus -69.9889 34.5183 34.6663
lradius 10.5091
lwrist -54.0405
lhand -5.29288 9.61735
lfingers 7.12502
lthumb 20.512 38.5538
rfemur -27.9771 17.6693 25.912
rtibia 39.512
rfoot -17.6976 14.6959
rtoes -1.45873
lfemur -30.4704 3.2284 -14.5723
ltibia 52.9861
lfoot -24.9929 4.66993
ltoes -19.7007
497
root -2.00524 17.3637 5.28433 893.883 -64.4649 -886.704
lowerback 22.5213 -2.13455 2.61305
upperback 4.28729 -2.61441 -0.471717
thorax -7.98729 -1.48612 -1.23039
lowerneck 10.5623 7.9065 8.41208
upperneck -38.8862 8.09577 -10.9992
head -14.0382 2.92126 -6.95895
rclavicle -4.09496e-014 4.45278e-014
rhumerus -41.1726 -17.577 -54.5977
rradius 93.8393
rwrist -46.3636
rhand -4.04746 -31.3729
rfingers 7.12502
rthumb 21.7084 -60.1757
lclavicle -4.09496e-014 4.45278e-014
lhumerus -71.3334 34.7755 32.2064
lradius 10.5105
lwrist -53.3101
lhand -7.03205 11.0644
lfingers 7.12502
lthumb 18.84 40.172
rfemur -28.9399 18.3323 25.7387
rtibia 40.0269
rfoot -17.6372 14.7666
rtoes -0.8574
lfemur -30.0779 4.03107 -14.6323
ltibia 51.1355
lfoot -24.7821 4.12742
ltoes -18.7145
498
root -1.98708 17.3355 5.32578 894.442 -63.9422 -886.84
lowerback 22.5039 -2.08899 2.21504
upperback 4.27679 -2.66027 -0.599481
thorax -7.98211 -1.49999 -1.12972
lowerneck 10.4725 7.75889 9.38366
upperneck -37.9379 7.98689 -11.6993
head -13.4821 2.92632 -7.30147
rclavicle 1.07344e-014 -2.54444e-014
rhumerus -40.5285 -17.453 -54.8302
rradius 93.7024
rwrist -46.5178
rhand -3.88098 -31.7354
rfingers 7.12502
rthumb 21.8682 -60.5197
lclavicle 1.07344e-014 -2.54444e-014
lhumerus -72.5666 35.3793 29.528
lradius 10.423
lwrist -52.7826
lhand -8.45505 12.215
lfingers 7.12502
lthumb 17.471 41.4499
rfemur -29.8974 18.9608 25.4362
rtibia 40.53
rfoot -17.744 14.6638
rtoes -1.31838
lfemur -29.744 5.05871 -14.8415
ltibia 49.6442
lfoot -24.7197 2.13623
ltoes -12.6605
499
root -1.95251 17.3237 5.37021 895.184 -63.7332 -887.121
lowerback 22.4256 -2.1772 1.80209
upperback 4.33988 -2.89365 -0.782296
thorax -7.87245 -1.6046 -1.02972
lowerneck 10.8785 7.76123 9.34137
upperneck -37.7151 8.11193 -11.6449
head -13.4619 3.01652 -7.29542
rclavicle -1.74931e-014 -2.22639e-014
rhumerus -39.7481 -17.3384 -55.2958
rradius 93.6186
rwrist -46.7281
rhand -3.61788 -31.951
rfingers 7.12502
rthumb 22.1209 -60.7056
lclavicle -1.74931e-014 -2.22639e-014
lhumerus -72.9439 36.0781 27.6688
lradius 10.3508
lwrist -52.1234
lhand -9.14783 13.1092
lfingers 7.12502
lthumb 16.8041 42.402
rfemur -30.9673 19.5604 24.9178
rtibia 41.023
rfoot -17.8014 14.4107
rtoes -1.48843
lfemur -29.9932 6.16778 -15.4063
ltibia 49.297
lfoot -24.463 5.57689
ltoes -28.4704
